<?xml version="1.0" encoding="UTF-8" standalone="no"?>
<svg
  xmlns:dc="http://purl.org/dc/elements/1.1/"
  xmlns:cc="http://creativecommons.org/ns#"
  xmlns:rdf="http://www.w3.org/1999/02/22-rdf-syntax-ns#"
  xmlns="http://www.w3.org/2000/svg"
  xmlns:sodipodi="http://sodipodi.sourceforge.net/DTD/sodipodi-0.dtd"
  xmlns:inkscape="http://www.inkscape.org/namespaces/inkscape"
  width="463"
  height="463"
  id="svg2"
  version="1.1"
  inkscape:version="0.48.5 r10040"
  sodipodi:docname="robot.svg">
  <metadata
     id="metadata55">
    <rdf:RDF>
      <cc:Work
         rdf:about="">
        <dc:format>image/svg+xml</dc:format>
        <dc:type
           rdf:resource="http://purl.org/dc/dcmitype/StillImage" />
      </cc:Work>
    </rdf:RDF>
  </metadata>
  <defs
     id="defs53" />
  <sodipodi:namedview
     pagecolor="#ffffff"
     bordercolor="#666666"
     borderopacity="1"
     objecttolerance="10"
     gridtolerance="10"
     guidetolerance="10"
     inkscape:pageopacity="0"
     inkscape:pageshadow="2"
     inkscape:window-width="1920"
     inkscape:window-height="1014"
     id="namedview51"
     showgrid="false"
     inkscape:zoom="0.50971922"
     inkscape:cx="235.42373"
     inkscape:cy="231.5"
     inkscape:window-x="0"
     inkscape:window-y="27"
     inkscape:window-maximized="1"
     inkscape:current-layer="svg2" />
  <g
     id="g4">
    <title
       id="title6">background</title>
    <rect
       x="-1"
       y="-1"
       width="465"
       height="465"
       id="canvas_background"
       fill="none" />
  </g>
  <g
     id="g9"
     style="fill:#fff">
    <title
       id="title11">Layer 1</title>
    <g
       id="svg_1"
       stroke="null"
       style="fill:#fff">
      <path
         d="m380.649041,128.601148c-7.41156,0 -13.715975,4.81149 -15.966117,11.473003l-7.547802,0c-1.385365,-18.245659 -9.77213,-34.317902 -22.736623,-43.418861l0,-2.83168c0,-15.617625 -12.70635,-28.323975 -28.323975,-28.323975l-149.149034,0c-15.617625,0 -28.323975,12.70635 -28.323975,28.323975l0,2.83168c-12.964493,9.100959 -21.351258,25.173202 -22.736623,43.418861l-7.547802,0c-2.250143,-6.661512 -8.554558,-11.473003 -15.966117,-11.473003c-9.291698,0 -16.850973,7.559275 -16.850973,16.850973s7.559275,16.850973 16.850973,16.850973c7.41156,0 13.715975,-4.81149 15.966117,-11.473003l7.547802,0c1.385365,18.245659 9.77213,34.317902 22.736623,43.418861l0,2.83168c0,15.617625 12.70635,28.323975 28.323975,28.323975l57.723544,0l0,12.190065l-29.041038,0c-8.160173,0 -14.983024,5.831154 -16.523275,13.545314c-14.919206,8.865763 -25.619215,22.869997 -31.019414,40.691155c-2.886894,9.527612 -3.579577,17.861314 -3.718687,22.38813l-8.507949,4.253616c-1.822773,0.911387 -2.973659,2.773598 -2.973659,4.810773l0,17.209504c0,2.037175 1.150886,3.899387 2.972942,4.810056l11.473003,5.736501c0.772276,0.386497 1.592596,0.568631 2.400726,0.568631c1.972639,0 3.872138,-1.089935 4.814359,-2.973659c1.328717,-2.656717 0.251689,-5.887084 -2.405028,-7.215085l-8.500061,-4.25003l0,-10.561616l6.095033,-3.047516l6.095033,3.047516l0,8.1487c0,2.970074 2.407896,5.37797 5.37797,5.37797s5.37797,-2.407896 5.37797,-5.37797l0,-11.473003c0,-2.037175 -1.150886,-3.899387 -2.972942,-4.810056l-8.483568,-4.241426c0.334151,-8.980493 3.280562,-35.699682 25.829314,-51.507328c2.896933,5.112657 8.384614,8.572484 14.668234,8.572484l11.831534,0l0,29.041038c0,12.176441 6.427033,22.874299 16.062204,28.897625c-3.274108,5.585201 -9.088769,17.693521 -10.150739,34.56242l-12.006497,0c-12.454661,0 -22.587474,10.132813 -22.587474,22.587474l0,5.736501c0,2.970074 2.407896,5.37797 5.37797,5.37797l40.155509,0c2.970074,0 5.37797,-2.407896 5.37797,-5.37797l0,-22.946005c0,-2.970074 -2.407896,-5.37797 -5.37797,-5.37797l-0.15632,0c1.168095,-15.937435 7.209348,-26.864753 9.399257,-30.349677c2.557045,0.61524 5.222367,0.950108 7.965849,0.950108c2.742765,0 5.408087,-0.334868 7.965132,-0.950108c2.200665,3.502851 8.233314,14.425867 9.400692,30.349677l-0.155603,0c-2.970074,0 -5.37797,2.407896 -5.37797,5.37797l0,22.946005c0,2.970074 2.407896,5.37797 5.37797,5.37797l40.155509,0c2.970074,0 5.37797,-2.407896 5.37797,-5.37797l0,-5.736501c0,-12.454661 -10.132813,-22.587474 -22.587474,-22.587474l-12.00578,0c-1.062687,-16.868899 -6.877348,-28.977219 -10.150739,-34.56242c9.635171,-6.023326 16.062204,-16.721184 16.062204,-28.897625l0,-29.041755l11.831534,0c6.282186,0 11.768432,-3.457676 14.665366,-8.567465c10.689253,7.456018 18.244942,18.144554 22.479915,31.88204c2.560631,8.306454 3.203836,15.673556 3.350117,19.621703l-8.482134,4.240709c-1.822056,0.91067 -2.972942,2.772881 -2.972942,4.810056l0,11.473003c0,2.970074 2.407896,5.37797 5.37797,5.37797s5.37797,-2.407896 5.37797,-5.37797l0,-8.149417l6.095033,-3.047516l6.095033,3.047516l0,10.561616l-8.500061,4.25003c-2.656717,1.328 -3.733745,4.558367 -2.405028,7.215085c0.94222,1.884441 2.841002,2.974376 4.814359,2.973659c0.80813,0 1.628449,-0.182851 2.400726,-0.568631l11.473003,-5.736501c1.822056,-0.91067 2.972942,-2.772881 2.972942,-4.810056l0,-17.209504c0,-2.037175 -1.150886,-3.899387 -2.972942,-4.810056l-8.507949,-4.253616c-0.139827,-4.526817 -0.831793,-12.860519 -3.718687,-22.38813c-5.400199,-17.821158 -16.100925,-31.825392 -31.019414,-40.691155c-1.540968,-7.71416 -8.363819,-13.545314 -16.523992,-13.545314l-29.041038,0l0,-12.190065l57.723544,0c15.617625,0 28.323975,-12.70635 28.323975,-28.323975l0,-2.83168c12.964493,-9.100959 21.351258,-25.173202 22.736623,-43.418861l7.547802,0c2.250143,6.661512 8.554558,11.473003 15.966117,11.473003c9.291698,0 16.850973,-7.559275 16.850973,-16.850973s-7.559275,-16.850973 -16.850973,-16.850973l-0.000002,0zm-171.736508,258.142559l-29.399569,0l0,-0.358531c0,-6.523836 5.307698,-11.831534 11.831534,-11.831534l17.568035,0l0,12.190065zm74.574517,-0.358531l0,0.358531l-29.399569,0l0,-12.190065l17.568035,0c6.523836,0 11.831534,5.307698 11.831534,11.831534zm-201.136077,-234.838022c-3.360873,0 -6.095033,-2.73416 -6.095033,-6.095033s2.73416,-6.095033 6.095033,-6.095033s6.095033,2.73416 6.095033,6.095033s-2.73416,6.095033 -6.095033,6.095033zm34.060477,-6.095033c0,-13.363897 4.589201,-25.903172 12.190065,-34.436217l0,68.871718c-7.600864,-8.532329 -12.190065,-21.071603 -12.190065,-34.4355l0,-0.000001zm63.102231,109.010017c0,-0.007171 -0.000717,-0.014341 -0.000717,-0.021512c0.002868,-3.358722 2.735594,-6.090013 6.095033,-6.090013l40.514041,0l0,12.190065l-40.514041,0c-3.355136,0 -6.084994,-2.725555 -6.094316,-6.07854zm75.290863,45.875518c0,12.849763 -10.454774,23.304537 -23.304537,23.304537s-23.304537,-10.454774 -23.304537,-23.304537l0,-29.041038l46.609073,0l0,29.041038l0.000001,0zm28.682507,-45.89703c0,0.007171 -0.000717,0.014341 -0.000717,0.021512c-0.009322,3.352985 -2.739179,6.07854 -6.094316,6.07854l-40.514041,0l0,-12.190065l40.514041,0c3.359439,0 6.092164,2.731292 6.095033,6.090013zm-45.89201,-16.845953l-12.190065,0l0,-12.190065l12.190065,0l0,12.190065zm86.04752,-40.514041c0,9.6868 -7.881236,17.568035 -17.568035,17.568035l-149.149034,0c-9.6868,0 -17.568035,-7.881236 -17.568035,-17.568035l0,-103.257024c0,-9.6868 7.881236,-17.568035 17.568035,-17.568035l149.149034,0c9.6868,0 17.568035,7.881236 17.568035,17.568035l0,103.257024zm10.75594,-17.192294l0,-68.872435c7.600864,8.532329 12.190065,21.072321 12.190065,34.436217s-4.589201,25.903172 -12.190065,34.436217l0,0.000001zm46.250542,-28.341185c-3.360873,0 -6.095033,-2.73416 -6.095033,-6.095033s2.73416,-6.095033 6.095033,-6.095033s6.095033,2.73416 6.095033,6.095033s-2.73416,6.095033 -6.095033,6.095033z"
         fill="#fff"
         id="svg_2"
         stroke="null"
         style="fill:#fff" />
      <path
         d="m306.074524,88.445639l-149.149034,0c-2.970074,0 -5.37797,2.407896 -5.37797,5.37797l0,103.257024c0,2.970074 2.407896,5.37797 5.37797,5.37797l149.149034,0c2.970074,0 5.37797,-2.407896 5.37797,-5.37797l0,-103.257024c0,-2.970074 -2.407896,-5.37797 -5.37797,-5.37797zm-5.37797,103.257024l-138.393094,0l0,-92.501084l138.393094,0l0,92.501084z"
         fill="#fff"
         id="svg_3"
         stroke="null"
         style="fill:#fff" />
      <path
         d="m202.8175,179.512597c9.291698,0 16.850973,-7.559275 16.850973,-16.850973l0,-34.419008c0,-9.291698 -7.559275,-16.850973 -16.850973,-16.850973s-16.850973,7.559275 -16.850973,16.850973l0,34.419008c0,9.291698 7.559275,16.850973 16.850973,16.850973zm-6.095033,-51.26998c0,-3.360873 2.73416,-6.095033 6.095033,-6.095033s6.095033,2.73416 6.095033,6.095033l0,34.419008c0,3.360873 -2.73416,6.095033 -6.095033,6.095033s-6.095033,-2.73416 -6.095033,-6.095033l0,-34.419008z"
         fill="#fff"
         id="svg_4"
         stroke="null"
         style="fill:#fff" />
      <path
         d="m260.182513,179.512597c9.291698,0 16.850973,-7.559275 16.850973,-16.850973l0,-34.419008c0,-9.291698 -7.559275,-16.850973 -16.850973,-16.850973s-16.850973,7.559275 -16.850973,16.850973l0,34.419008c0,9.291698 7.559275,16.850973 16.850973,16.850973zm-6.095033,-51.26998c0,-3.360873 2.73416,-6.095033 6.095033,-6.095033s6.095033,2.73416 6.095033,6.095033l0,34.419008c0,3.360873 -2.73416,6.095033 -6.095033,6.095033s-6.095033,-2.73416 -6.095033,-6.095033l0,-34.419008z"
         fill="#fff"
         id="svg_5"
         stroke="null"
         style="fill:#fff" />
    </g>
    <g
       id="svg_6"
       style="fill:#fff" />
    <g
       id="svg_7"
       style="fill:#fff" />
    <g
       id="svg_8"
       style="fill:#fff" />
    <g
       id="svg_9"
       style="fill:#fff" />
    <g
       id="svg_10"
       style="fill:#fff" />
    <g
       id="svg_11"
       style="fill:#fff" />
    <g
       id="svg_12"
       style="fill:#fff" />
    <g
       id="svg_13"
       style="fill:#fff" />
    <g
       id="svg_14"
       style="fill:#fff" />
    <g
       id="svg_15"
       style="fill:#fff" />
    <g
       id="svg_16"
       style="fill:#fff" />
    <g
       id="svg_17"
       style="fill:#fff" />
    <g
       id="svg_18"
       style="fill:#fff" />
    <g
       id="svg_19"
       style="fill:#fff" />
    <g
       id="svg_20"
       style="fill:#fff" />
    <rect
       stroke="#000"
       id="svg_21"
       height="52.333329"
       width="21.666665"
       y="119.333334"
       x="192.000001"
       stroke-width="0"
       fill="#fff"
       style="fill:#fff" />
    <rect
       stroke="#000"
       id="svg_22"
       height="52.333329"
       width="17"
       y="118.666668"
       x="252"
       stroke-width="0"
       fill="#fff"
       style="fill:#fff" />
    <rect
       id="svg_23"
       height="17"
       width="109"
       y="246"
       x="178"
       stroke-opacity="null"
       stroke-width="0"
       stroke="#000"
       fill="#fff"
       style="fill:#fff" />
    <rect
       id="svg_24"
       height="55.333334"
       width="49.000002"
       y="268.666667"
       x="206.66667"
       stroke-opacity="null"
       stroke-width="0"
       fill="#fff"
       style="fill:#fff" />
    <rect
       stroke="#000"
       id="svg_25"
       height="17"
       width="33.33333"
       y="372"
       x="177.666668"
       fill-opacity="null"
       stroke-opacity="null"
       stroke-width="0"
       fill="#fff"
       style="fill:#fff" />
    <rect
       stroke="#000"
       id="svg_26"
       height="17"
       width="32.666665"
       y="372"
       x="252.666668"
       fill-opacity="null"
       stroke-opacity="null"
       stroke-width="0"
       fill="#fff"
       style="fill:#fff" />
    <rect
       stroke="#000"
       id="svg_27"
       height="20"
       width="19.666665"
       y="223"
       x="223.000001"
       fill-opacity="null"
       stroke-opacity="null"
       stroke-width="0"
       fill="#fff"
       style="fill:#fff" />
    <rect
       id="svg_29"
       height="13"
       width="15"
       y="139"
       x="373"
       fill-opacity="null"
       stroke-opacity="null"
       stroke-width="0"
       stroke="#000"
       fill="#fff"
       style="fill:#fff" />
    <rect
       stroke="#000"
       id="svg_30"
       height="18"
       width="186.999998"
       y="73.666666"
       x="138.666676"
       fill-opacity="null"
       stroke-opacity="null"
       stroke-width="0"
       fill="#fff"
       style="fill:#fff" />
    <rect
       id="svg_31"
       height="70"
       width="17"
       y="111"
       x="116"
       fill-opacity="null"
       stroke-opacity="null"
       stroke-width="0"
       stroke="#000"
       fill="#fff"
       style="fill:#fff" />
    <rect
       id="svg_32"
       height="113"
       width="18"
       y="90"
       x="136"
       fill-opacity="null"
       stroke-opacity="null"
       stroke-width="0"
       stroke="#000"
       fill="#fff"
       style="fill:#fff" />
    <rect
       id="svg_33"
       height="113"
       width="18"
       y="90"
       x="308"
       fill-opacity="null"
       stroke-opacity="null"
       stroke-width="0"
       stroke="#000"
       fill="#fff"
       style="fill:#fff" />
    <rect
       stroke="#000"
       id="svg_34"
       height="18"
       width="185.000005"
       y="199"
       x="140"
       fill-opacity="null"
       stroke-opacity="null"
       stroke-width="0"
       fill="#fff"
       style="fill:#fff" />
    <rect
       id="svg_35"
       height="70"
       width="17"
       y="111"
       x="330"
       fill-opacity="null"
       stroke-opacity="null"
       stroke-width="0"
       stroke="#000"
       fill="#fff"
       style="fill:#fff" />
    <ellipse
       ry="22.333325"
       rx="7.333331"
       id="svg_37"
       cy="138.16671"
       cx="121.833372"
       fill-opacity="null"
       stroke-opacity="null"
       stroke-width="0"
       stroke="#000"
       fill="#fff"
       style="fill:#fff" />
    <ellipse
       ry="27.666657"
       rx="8.666664"
       id="svg_38"
       cy="138.833376"
       cx="341.833295"
       fill-opacity="null"
       stroke-opacity="null"
       stroke-width="0"
       stroke="#000"
       fill="#fff"
       style="fill:#fff" />
    <ellipse
       ry="10.33333"
       rx="11.333329"
       id="svg_39"
       cy="145.50004"
       cx="81.16672"
       fill-opacity="null"
       stroke-opacity="null"
       stroke-width="0"
       stroke="#000"
       fill="#fff"
       style="fill:#fff" />
    <ellipse
       ry="8.999997"
       rx="9.999996"
       id="svg_40"
       cy="144.833374"
       cx="381.83328"
       fill-opacity="null"
       stroke-opacity="null"
       stroke-width="0"
       stroke="#000"
       fill="#fff"
       style="fill:#fff" />
  </g>
</svg>
