<?xml version="1.0" encoding="UTF-8" standalone="no"?>
<!-- Created with Inkscape (http://www.inkscape.org/) -->

<svg
  xmlns:dc="http://purl.org/dc/elements/1.1/"
  xmlns:cc="http://creativecommons.org/ns#"
  xmlns:rdf="http://www.w3.org/1999/02/22-rdf-syntax-ns#"
  xmlns="http://www.w3.org/2000/svg"
  version="1.1"
  width="147.44737"
  height="159.38666"
  id="svg2"
  xml:space="preserve"><metadata
     id="metadata8"><rdf:RDF><cc:Work
         rdf:about=""><dc:format>image/svg+xml</dc:format><dc:type
           rdf:resource="http://purl.org/dc/dcmitype/StillImage" /><dc:title></dc:title></cc:Work></rdf:RDF></metadata><defs
     id="defs6"><clipPath
       id="clipPath16"><path
         d="m 0,2204.724 787.402,0 L 787.402,0 0,0 0,2204.724 z"
         id="path18" /></clipPath><clipPath
       id="clipPath24"><path
         d="M 3.05176e-5,2204.72 787.402,2204.72 787.402,0 3.05176e-5,0 l 0,2204.72 z"
         id="path26" /></clipPath><clipPath
       id="clipPath38"><path
         d="m 0,2204.724 787.402,0 L 787.402,0 0,0 0,2204.724 z"
         id="path40" /></clipPath><clipPath
       id="clipPath46"><path
         d="m 366.535,64.5675 55.906,0 0,-17.3229 -55.906,0 0,17.3229 z"
         id="path48" /></clipPath><clipPath
       id="clipPath110"><path
         d="m 0,2204.724 787.402,0 L 787.402,0 0,0 0,2204.724 z"
         id="path112" /></clipPath><clipPath
       id="clipPath118"><path
         d="m 522.047,210.237 55.905,0 0,-17.323 -55.905,0 0,17.323 z"
         id="path120" /></clipPath><clipPath
       id="clipPath178"><path
         d="m 0,2204.724 787.402,0 L 787.402,0 0,0 0,2204.724 z"
         id="path180" /></clipPath><clipPath
       id="clipPath186"><path
         d="m 366.142,210.237 55.905,0 0,-17.323 -55.905,0 0,17.323 z"
         id="path188" /></clipPath><clipPath
       id="clipPath246"><path
         d="m 0,2204.724 787.402,0 L 787.402,0 0,0 0,2204.724 z"
         id="path248" /></clipPath><clipPath
       id="clipPath254"><path
         d="m 208.59,210.359 55.906,0 0,-17.323 -55.906,0 0,17.323 z"
         id="path256" /></clipPath><clipPath
       id="clipPath318"><path
         d="m 0,2204.724 787.402,0 L 787.402,0 0,0 0,2204.724 z"
         id="path320" /></clipPath><clipPath
       id="clipPath326"><path
         d="m 516.535,359.843 67.323,0 0,-20.866 -67.323,0 0,20.866 z"
         id="path328" /></clipPath><clipPath
       id="clipPath386"><path
         d="m 0,2204.724 787.402,0 L 787.402,0 0,0 0,2204.724 z"
         id="path388" /></clipPath><clipPath
       id="clipPath394"><path
         d="m 364.567,367.717 55.905,0 0,-17.323 -55.905,0 0,17.323 z"
         id="path396" /></clipPath><clipPath
       id="clipPath450"><path
         d="m 0,2204.724 787.402,0 L 787.402,0 0,0 0,2204.724 z"
         id="path452" /></clipPath><clipPath
       id="clipPath458"><path
         d="m 208.267,360.63 55.906,0 0,-17.323 -55.906,0 0,17.323 z"
         id="path460" /></clipPath><clipPath
       id="clipPath510"><path
         d="m 0,2204.724 787.402,0 L 787.402,0 0,0 0,2204.724 z"
         id="path512" /></clipPath><clipPath
       id="clipPath518"><path
         d="m 521.26,520.473 55.905,0 0,-17.323 -55.905,0 0,17.323 z"
         id="path520" /></clipPath><clipPath
       id="clipPath574"><path
         d="m 0,2204.724 787.402,0 L 787.402,0 0,0 0,2204.724 z"
         id="path576" /></clipPath><clipPath
       id="clipPath582"><path
         d="m 366.142,510.237 55.905,0 0,-17.323 -55.905,0 0,17.323 z"
         id="path584" /></clipPath><clipPath
       id="clipPath638"><path
         d="m 0,2204.724 787.402,0 L 787.402,0 0,0 0,2204.724 z"
         id="path640" /></clipPath><clipPath
       id="clipPath646"><path
         d="m 207.874,522.048 55.905,0 0,-17.323 -55.905,0 0,17.323 z"
         id="path648" /></clipPath><clipPath
       id="clipPath694"><path
         d="m 0,2204.724 787.402,0 L 787.402,0 0,0 0,2204.724 z"
         id="path696" /></clipPath><clipPath
       id="clipPath702"><path
         d="m 523.622,677.56 55.905,0 0,-17.323 -55.905,0 0,17.323 z"
         id="path704" /></clipPath><clipPath
       id="clipPath754"><path
         d="m 0,2204.724 787.402,0 L 787.402,0 0,0 0,2204.724 z"
         id="path756" /></clipPath><clipPath
       id="clipPath762"><path
         d="m 364.566,682.678 55.906,0 0,-17.323 -55.906,0 0,17.323 z"
         id="path764" /></clipPath><clipPath
       id="clipPath814"><path
         d="m 0,2204.724 787.402,0 L 787.402,0 0,0 0,2204.724 z"
         id="path816" /></clipPath><clipPath
       id="clipPath822"><path
         d="m 181.89,704.725 109.449,0 0,-39.764 -109.449,0 0,39.764 z"
         id="path824" /></clipPath><clipPath
       id="clipPath862"><path
         d="m 0,2204.724 787.402,0 L 787.402,0 0,0 0,2204.724 z"
         id="path864" /></clipPath><clipPath
       id="clipPath870"><path
         d="m 522.047,837.796 55.905,0 0,-17.323 -55.905,0 0,17.323 z"
         id="path872" /></clipPath><clipPath
       id="clipPath930"><path
         d="m 0,2204.724 787.402,0 L 787.402,0 0,0 0,2204.724 z"
         id="path932" /></clipPath><clipPath
       id="clipPath938"><path
         d="m 363.779,833.072 55.906,0 0,-17.323 -55.906,0 0,17.323 z"
         id="path940" /></clipPath><clipPath
       id="clipPath982"><path
         d="m 0,2204.724 787.402,0 L 787.402,0 0,0 0,2204.724 z"
         id="path984" /></clipPath><clipPath
       id="clipPath994"><path
         d="m 221.259,837.796 55.906,0 0,-17.323 -55.906,0 0,17.323 z"
         id="path996" /></clipPath><clipPath
       id="clipPath1038"><path
         d="m 0,2204.724 787.402,0 L 787.402,0 0,0 0,2204.724 z"
         id="path1040" /></clipPath><clipPath
       id="clipPath1046"><path
         d="m 522.047,991.339 55.905,0 0,-17.323 -55.905,0 0,17.323 z"
         id="path1048" /></clipPath><clipPath
       id="clipPath1094"><path
         d="m 0,2204.724 787.402,0 L 787.402,0 0,0 0,2204.724 z"
         id="path1096" /></clipPath><clipPath
       id="clipPath1102"><path
         d="m 365.354,977.166 55.906,0 0,-17.323 -55.906,0 0,17.323 z"
         id="path1104" /></clipPath><clipPath
       id="clipPath1186"><path
         d="m 0,2204.724 787.402,0 L 787.402,0 0,0 0,2204.724 z"
         id="path1188" /></clipPath><clipPath
       id="clipPath1194"><path
         d="m 208.267,984.252 55.906,0 0,-17.322 -55.906,0 0,17.322 z"
         id="path1196" /></clipPath><clipPath
       id="clipPath1254"><path
         d="m 0,2204.724 787.402,0 L 787.402,0 0,0 0,2204.724 z"
         id="path1256" /></clipPath><clipPath
       id="clipPath1262"><path
         d="m 523.622,1150.39 55.905,0 0,-17.32 -55.905,0 0,17.32 z"
         id="path1264" /></clipPath><clipPath
       id="clipPath1322"><path
         d="m 0,2204.724 787.402,0 L 787.402,0 0,0 0,2204.724 z"
         id="path1324" /></clipPath><clipPath
       id="clipPath1330"><path
         d="m 365.748,1145.67 55.905,0 0,-17.32 -55.905,0 0,17.32 z"
         id="path1332" /></clipPath><clipPath
       id="clipPath1374"><path
         d="m 0,2204.724 787.402,0 L 787.402,0 0,0 0,2204.724 z"
         id="path1376" /></clipPath><clipPath
       id="clipPath1382"><path
         d="m 207.874,1149.21 55.905,0 0,-17.32 -55.905,0 0,17.32 z"
         id="path1384" /></clipPath><clipPath
       id="clipPath1430"><path
         d="m 0,2204.724 787.402,0 L 787.402,0 0,0 0,2204.724 z"
         id="path1432" /></clipPath><clipPath
       id="clipPath1438"><path
         d="m 518.504,1309.45 55.905,0 0,-17.32 -55.905,0 0,17.32 z"
         id="path1440" /></clipPath><clipPath
       id="clipPath1502"><path
         d="m 0,2204.724 787.402,0 L 787.402,0 0,0 0,2204.724 z"
         id="path1504" /></clipPath><clipPath
       id="clipPath1510"><path
         d="m 364.567,1295.28 55.905,0 0,-17.33 -55.905,0 0,17.33 z"
         id="path1512" /></clipPath><clipPath
       id="clipPath1578"><path
         d="m 0,2204.724 787.402,0 L 787.402,0 0,0 0,2204.724 z"
         id="path1580" /></clipPath><clipPath
       id="clipPath1586"><path
         d="m 209.448,1307.48 55.906,0 0,-17.32 -55.906,0 0,17.32 z"
         id="path1588" /></clipPath><clipPath
       id="clipPath1642"><path
         d="m 0,2204.724 787.402,0 L 787.402,0 0,0 0,2204.724 z"
         id="path1644" /></clipPath><clipPath
       id="clipPath1650"><path
         d="m 500,1467.32 107.087,0 0,-33.07 -107.087,0 0,33.07 z"
         id="path1652" /></clipPath><clipPath
       id="clipPath1706"><path
         d="m 0,2204.724 787.402,0 L 787.402,0 0,0 0,2204.724 z"
         id="path1708" /></clipPath><clipPath
       id="clipPath1714"><path
         d="m 366.141,1468.5 55.906,0 0,-17.32 -55.906,0 0,17.32 z"
         id="path1716" /></clipPath><clipPath
       id="clipPath1734"><path
         d="m 0,2204.724 787.402,0 L 787.402,0 0,0 0,2204.724 z"
         id="path1736" /></clipPath><clipPath
       id="clipPath1774"><path
         d="m 0,2204.724 787.402,0 L 787.402,0 0,0 0,2204.724 z"
         id="path1776" /></clipPath><clipPath
       id="clipPath1782"><path
         d="m 207.48,1468.5 55.905,0 0,-17.32 -55.905,0 0,17.32 z"
         id="path1784" /></clipPath><clipPath
       id="clipPath1838"><path
         d="m 0,2204.724 787.402,0 L 787.402,0 0,0 0,2204.724 z"
         id="path1840" /></clipPath><clipPath
       id="clipPath1846"><path
         d="m 522.047,1619.69 55.905,0 0,-17.33 -55.905,0 0,17.33 z"
         id="path1848" /></clipPath><clipPath
       id="clipPath1890"><path
         d="m 0,2204.724 787.402,0 L 787.402,0 0,0 0,2204.724 z"
         id="path1892" /></clipPath><clipPath
       id="clipPath1898"><path
         d="m 366.535,1618.9 55.906,0 0,-17.32 -55.906,0 0,17.32 z"
         id="path1900" /></clipPath><clipPath
       id="clipPath1954"><path
         d="m 0,2204.724 787.402,0 L 787.402,0 0,0 0,2204.724 z"
         id="path1956" /></clipPath><clipPath
       id="clipPath1962"><path
         d="m 207.874,1624.41 55.905,0 0,-17.32 -55.905,0 0,17.32 z"
         id="path1964" /></clipPath><clipPath
       id="clipPath2026"><path
         d="m 0,2204.724 787.402,0 L 787.402,0 0,0 0,2204.724 z"
         id="path2028" /></clipPath><clipPath
       id="clipPath2034"><path
         d="m 520.078,1779.92 55.906,0 0,-17.32 -55.906,0 0,17.32 z"
         id="path2036" /></clipPath><clipPath
       id="clipPath2090"><path
         d="m 0,2204.724 787.402,0 L 787.402,0 0,0 0,2204.724 z"
         id="path2092" /></clipPath><clipPath
       id="clipPath2098"><path
         d="m 368.11,1781.89 55.905,0 0,-17.32 -55.905,0 0,17.32 z"
         id="path2100" /></clipPath><clipPath
       id="clipPath2158"><path
         d="m 0,2204.724 787.402,0 L 787.402,0 0,0 0,2204.724 z"
         id="path2160" /></clipPath><clipPath
       id="clipPath2166"><path
         d="m 207.874,1775.59 55.905,0 0,-17.32 -55.905,0 0,17.32 z"
         id="path2168" /></clipPath><clipPath
       id="clipPath2226"><path
         d="m 0,2204.724 787.402,0 L 787.402,0 0,0 0,2204.724 z"
         id="path2228" /></clipPath><clipPath
       id="clipPath2234"><path
         d="m 521.26,1928.35 55.905,0 0,-17.33 -55.905,0 0,17.33 z"
         id="path2236" /></clipPath><clipPath
       id="clipPath2294"><path
         d="m 0,2204.724 787.402,0 L 787.402,0 0,0 0,2204.724 z"
         id="path2296" /></clipPath><clipPath
       id="clipPath2302"><path
         d="m 366.535,1940.16 55.905,0 0,-17.33 -55.905,0 0,17.33 z"
         id="path2304" /></clipPath><clipPath
       id="clipPath2358"><path
         d="m 0,2204.724 787.402,0 L 787.402,0 0,0 0,2204.724 z"
         id="path2360" /></clipPath><clipPath
       id="clipPath2366"><path
         d="m 204.33,1922.84 55.906,0 0,-17.33 -55.906,0 0,17.33 z"
         id="path2368" /></clipPath><clipPath
       id="clipPath2418"><path
         d="m 0,2204.724 787.402,0 L 787.402,0 0,0 0,2204.724 z"
         id="path2420" /></clipPath><clipPath
       id="clipPath2426"><path
         d="m 522.44,2090.16 55.906,0 0,-17.33 -55.906,0 0,17.33 z"
         id="path2428" /></clipPath><clipPath
       id="clipPath2478"><path
         d="m 0,2204.724 787.402,0 L 787.402,0 0,0 0,2204.724 z"
         id="path2480" /></clipPath><clipPath
       id="clipPath2486"><path
         d="m 364.566,2100.79 55.906,0 0,-17.33 -55.906,0 0,17.33 z"
         id="path2488" /></clipPath><clipPath
       id="clipPath2526"><path
         d="m 0,2204.724 787.402,0 L 787.402,0 0,0 0,2204.724 z"
         id="path2528" /></clipPath><clipPath
       id="clipPath2534"><path
         d="m 207.086,2088.98 55.906,0 0,-17.33 -55.906,0 0,17.33 z"
         id="path2536" /></clipPath></defs><g
     transform="matrix(1.25,0,0,-1.25,-222.94439,2541.2768)"
     id="g10"><g
       id="g2354"><g
         clip-path="url(#clipPath2358)"
         id="g2356"><g
           id="g2362"><g
             id="g2364" /><g
             id="g2370"><g
               clip-path="url(#clipPath2366)"
               id="g2372"
               style="opacity:0.19999701"><g
                 transform="translate(232.2831,1922.8351)"
                 id="g2374"><path
                   d="m 0,0 c -15.438,0 -27.953,-3.878 -27.953,-8.661 0,-4.784 12.515,-8.662 27.953,-8.662 15.438,0 27.953,3.878 27.953,8.662 C 27.953,-3.878 15.438,0 0,0"
                   id="path2376"
                   style="fill:#000000;fill-opacity:1;fill-rule:evenodd;stroke:none" /></g></g></g></g><g
           transform="translate(210.5658,1996.0739)"
           id="g2378"><path
             d="m 0,0 c 5.689,7.128 13.044,11.899 21.323,11.899 4.465,0 8.666,-1.403 12.489,-3.8 1.014,1.538 1.417,3.084 1.034,4.509 -0.944,3.525 -6.352,5.319 -13.265,4.871 l -3.535,13.193 c -1.21,4.515 -5.851,7.195 -10.367,5.985 L 7.299,36.555 C 2.783,35.345 0.103,30.704 1.313,26.188 L 4.988,12.474 C 0.007,9.537 -2.878,5.846 -2.041,2.724 -1.753,1.647 -1.039,0.738 0,0"
             id="path2380"
             style="fill:#674071;fill-opacity:1;fill-rule:evenodd;stroke:none" /></g><g
           transform="translate(204.7243,1946.0631)"
           id="g2382"><path
             d="m 0,0 c 2.793,-7.515 17.308,-16.142 17.308,-16.142 l 0,-2.759 c -0.645,-0.008 -1.166,-0.531 -1.166,-1.178 0,-0.647 0.521,-1.169 1.166,-1.178 l 0,-3.152 c 0,0 -11.62,-4.006 -9.04,-8.268 2.58,-4.263 9.145,-1.759 10.63,1.181 1.484,2.94 0.787,7.087 0.787,7.087 l 0,7.48 c 0,0 3.323,-1.181 5.906,-1.181 l 1.181,0 c 2.582,0 5.905,1.181 5.905,1.181 l 0,-7.48 c 0,0 -0.697,-4.147 0.788,-7.087 1.484,-2.94 8.05,-5.444 10.63,-1.181 2.58,4.262 -9.041,8.268 -9.041,8.268 l 0,3.152 c 0.645,0.009 1.167,0.531 1.167,1.178 0,0.647 -0.522,1.17 -1.167,1.178 l 0,2.759 c 0,0 14.515,8.627 17.308,16.142 C 55.155,7.515 -2.793,7.515 0,0"
             id="path2384"
             style="fill:#674071;fill-opacity:1;fill-rule:evenodd;stroke:none" /></g><g
           transform="translate(231.8893,2007.9729)"
           id="g2386"><path
             d="m 0,0 c -23.031,0 -38.976,-36.811 -31.496,-59.055 7.48,-22.244 55.315,-20.472 62.992,0.787 C 39.173,-37.008 23.031,0 0,0"
             id="path2388"
             style="fill:#68bc31;fill-opacity:1;fill-rule:evenodd;stroke:none" /></g><g
           transform="translate(194.383,1933.4498)"
           id="g2390"><path
             d="m 0,0 c 0,0 4.674,1.381 3.548,4.38 -1.127,3 -9.354,-3.641 -9.354,-3.641 0,0 -9.727,2.103 -5.366,12.774 4.552,10.622 19.487,7.795 19.487,7.795 l -3.619,6.96 c 0,0 -11.414,0.464 -17.817,-10.022 -6.403,-10.486 -1.083,-17.749 4.948,-21.554 0.65,-3.248 1.744,-13.406 7.371,-13.062 3.623,0.222 -2.059,8.992 -2.059,8.992 0,0 7.432,-8.408 9.657,-4.46 2.224,3.949 -7.346,8.144 -7.346,8.144 0,0 10.367,-3.496 10.742,0.288 C 10.567,0.377 0,0 0,0 m 100.518,49.738 c -2.719,2.405 -4.903,-7.815 -4.903,-7.815 0,0 0.69,11.202 -3.675,9.983 -4.365,-1.219 -0.564,-10.953 -0.564,-10.953 0,0 -4.859,9.802 -7.799,7.392 -2.94,-2.41 4.798,-9.615 4.798,-9.615 0,0 -4.281,2.329 -5.606,-0.589 -1.325,-2.918 9.189,-4.039 9.189,-4.039 0,0 5.391,-8.365 -5.239,-12.827 -10.729,-4.292 -19.291,8.267 -19.291,8.267 l -2.362,-7.48 c 0,0 7.743,-8.399 19.685,-5.512 11.942,2.887 13.317,11.785 11.742,18.74 1.837,2.756 8.246,10.712 4.025,14.448"
             id="path2392"
             style="fill:#68bc31;fill-opacity:1;fill-rule:evenodd;stroke:none" /></g><g
           transform="translate(245.5274,1957.7758)"
           id="g2394"><path
             d="M 0,0 C -2.12,1.673 -7.622,-0.896 -13.441,-0.638 -19.26,-0.896 -24.761,1.673 -26.882,0 c -0.929,-0.857 -0.626,-3.299 1.718,-5.736 2.261,-2.401 6.563,-4.795 11.723,-4.716 5.16,-0.079 9.462,2.315 11.723,4.716 C 0.626,-3.299 0.929,-0.857 0,0"
             id="path2396"
             style="fill:#142122;fill-opacity:1;fill-rule:evenodd;stroke:none" /></g><g
           transform="translate(222.4482,1987.3969)"
           id="g2398"><path
             d="M 0,0 C -0.391,0.231 -0.829,0.438 -1.31,0.575 -1.79,0.71 -2.306,0.788 -2.834,0.792 -3.363,0.789 -3.879,0.714 -4.359,0.581 -4.84,0.445 -5.28,0.242 -5.671,0.011 -6.449,-0.466 -7.014,-1.073 -7.355,-1.65 c -0.344,-0.576 -0.493,-1.1 -0.509,-1.477 -0.017,-0.379 0.076,-0.606 0.231,-0.664 0.331,-0.124 0.803,0.427 1.582,0.99 0.385,0.287 0.861,0.564 1.401,0.778 0.273,0.099 0.56,0.19 0.863,0.248 0.304,0.055 0.621,0.087 0.948,0.091 0.328,-0.004 0.644,-0.039 0.948,-0.095 0.303,-0.057 0.589,-0.151 0.862,-0.251 0.54,-0.215 1.014,-0.495 1.398,-0.783 0.777,-0.566 1.247,-1.119 1.579,-0.997 0.155,0.058 0.249,0.285 0.233,0.663 C 2.166,-2.769 2.02,-2.245 1.677,-1.667 1.338,-1.09 0.777,-0.479 0,0 M 26.639,-1.667 C 26.3,-1.09 25.738,-0.479 24.961,0 24.571,0.231 24.132,0.438 23.652,0.575 23.171,0.71 22.656,0.788 22.127,0.792 21.599,0.789 21.083,0.714 20.602,0.581 20.121,0.445 19.681,0.242 19.29,0.011 18.512,-0.466 17.947,-1.073 17.606,-1.65 c -0.344,-0.576 -0.493,-1.1 -0.509,-1.477 -0.017,-0.379 0.076,-0.606 0.231,-0.664 0.331,-0.124 0.803,0.427 1.582,0.99 0.386,0.287 0.861,0.564 1.401,0.778 0.274,0.099 0.56,0.19 0.864,0.248 0.304,0.055 0.62,0.087 0.947,0.091 0.328,-0.004 0.644,-0.039 0.948,-0.095 0.304,-0.057 0.589,-0.151 0.862,-0.251 0.54,-0.215 1.014,-0.495 1.399,-0.783 0.776,-0.566 1.246,-1.119 1.578,-0.997 0.155,0.058 0.249,0.285 0.233,0.663 -0.014,0.378 -0.161,0.902 -0.503,1.48"
             id="path2400"
             style="fill:#142122;fill-opacity:1;fill-rule:evenodd;stroke:none" /></g><g
           transform="translate(255.719,1958.6736)"
           id="g2402"><path
             d="m 0,0 c 0,0 -2.467,-4.018 -6.492,-2.076 -4.024,1.942 -6.102,6.161 -10.97,7.299 -2.866,0.67 -4.966,0.272 -6.171,-1.07 -1.203,1.342 -3.304,1.74 -6.17,1.07 -4.868,-1.138 -6.946,-5.357 -10.97,-7.299 C -44.798,-4.018 -47.265,0 -47.265,0 c -0.974,-1.875 3.441,-8.438 10.776,-8.572 5.567,-0.101 10.645,2.343 12.856,5.459 2.212,-3.116 7.29,-5.56 12.857,-5.459 C -3.44,-8.438 0.974,-1.875 0,0"
             id="path2404"
             style="fill:#fffffc;fill-opacity:1;fill-rule:evenodd;stroke:none" /></g><g
           transform="translate(255.3899,1980.0581)"
           id="g2406"><path
             d="m 0,0 c -2.484,-2.893 -9.936,-2.441 -12.972,-0.904 -3.036,1.537 -5.804,9.903 -4.876,11.299 2.944,4.429 17.204,3.073 18.676,1.536 C 2.3,10.395 2.484,2.892 0,0 M -32.847,-0.904 C -35.883,-2.441 -43.335,-2.893 -45.819,0 c -2.484,2.892 -2.3,10.395 -0.828,11.931 1.472,1.537 15.732,2.893 18.676,-1.536 0.927,-1.396 -1.84,-9.762 -4.876,-11.299 M 6.71,14.185 c -0.494,0.495 -9.369,1.447 -14.313,1.387 -7.432,-0.092 -11.363,-2.348 -13.486,-2.794 -0.524,-0.042 -1.158,-0.08 -1.824,-0.092 -0.667,0.012 -1.301,0.05 -1.824,0.092 -2.123,0.446 -6.055,2.702 -13.486,2.794 -4.944,0.06 -13.82,-0.892 -14.314,-1.387 -0.493,-0.495 -0.197,-2.774 -0.098,-3.467 0.098,-0.693 1.184,-1.089 1.875,-2.08 0.691,-0.99 0.592,-8.32 3.751,-11.094 3.159,-2.773 11.648,-1.882 14.314,-0.792 3.503,1.432 7.107,9.014 7.699,11.886 0.272,1.319 1.148,1.882 2.083,2.109 0.934,-0.227 1.81,-0.79 2.082,-2.109 0.592,-2.872 4.196,-10.454 7.7,-11.886 2.665,-1.09 11.154,-1.981 14.313,0.792 3.159,2.774 3.06,10.104 3.751,11.094 0.691,0.991 1.777,1.387 1.876,2.08 0.099,0.693 0.395,2.972 -0.099,3.467"
             id="path2408"
             style="fill:#142122;fill-opacity:1;fill-rule:evenodd;stroke:none" /></g><g
           transform="translate(235.8267,2007.4805)"
           id="g2410"><path
             d="m 0,0 c 0.525,0.919 -4.724,0.787 -9.055,0 -4.331,-0.787 -3.544,-1.181 -3.544,-1.181 0,0 1.444,0.131 4.725,-0.394 3.281,-0.525 4.068,-3.674 1.181,-5.512 -2.887,-1.837 -8.815,-3.146 -8.661,0.394 0.098,2.264 4.101,1.017 2.755,0 -0.888,-0.671 2.1,-0.787 2.756,1.181 0.657,1.969 -4.068,3.937 -7.086,0.394 -3.634,-4.266 3.984,-8.829 12.205,-4.331 5.692,3.115 3.543,5.643 3.937,7.481 C -0.394,-0.131 -0.525,-0.919 0,0"
             id="path2412"
             style="fill:#142122;fill-opacity:1;fill-rule:evenodd;stroke:none" /></g></g></g></g></svg>
